# xmcd CD database file
#
# Track frame offsets:
#	182
#	19637
#	40817
#	56900
#	74725
#	92577
#	109912
#	129287
#	143900
#	162625
#	181500
#	194600
#	208300
#	231512
#	251837
#	270100
#
# Disc length: 3853 seconds
#
# Revision: 2
# Processed by: cddbd v1.5.1PL0 Copyright (c) Steve Scherf et al.
# Submitted via: CDex 1.51
#
DISCID=ef0f0b10
DTITLE=D. Sailor y M. Fultz - PADRE NUESTRO
DYEAR=1993
DGENRE=Christian Rock
TTITLE0=PADRE NUESTRO
TTITLE1=MICHAEL ROW THE BOAT
TTITLE2=OH! SEÑOR (MY SWEET LORD)
TTITLE3=AMIGO
TTITLE4=GOSPEL PARTY
TTITLE5=ES MAS QUE AMOR
TTITLE6=JESUCRISTO
TTITLE7=LA SAETA
TTITLE8=¡OH HAPPY DAY!
TTITLE9=ESTARÉ
TTITLE10=CON EL
TTITLE11=SANTO
TTITLE12=EL ESPIRITU DE BROADWAY
TTITLE13=PON TU MANO EN LA MANO
TTITLE14=LET IT BE
TTITLE15=CREDO
EXTD=YEAR: 1993
EXTT0=
EXTT1=
EXTT2=
EXTT3=
EXTT4=
EXTT5=
EXTT6=
EXTT7=
EXTT8=
EXTT9=
EXTT10=
EXTT11=
EXTT12=
EXTT13=
EXTT14=
EXTT15=
PLAYORDER=
